<?xml version="1.0" encoding="utf-8"?>
<!-- Generator: Adobe Illustrator 26.5.0, SVG Export Plug-In . SVG Version: 6.00 Build 0)  -->
<svg version="1.1" id="Calque_1" xmlns="http://www.w3.org/2000/svg" xmlns:xlink="http://www.w3.org/1999/xlink" x="0px" y="0px"
	 viewBox="0 0 512 512" style="enable-background:new 0 0 512 512;" xml:space="preserve">
<style type="text/css">
	.st0{fill:#00004B;}
	.st1{fill:#FFFFFF;}
	.st2{fill:#0000FF;}
	.st3{fill:#FFFF00;}
	.st4{fill:#00FFFF;}
	.st5{fill:#FFFFFF;stroke:#00004B;stroke-width:15;stroke-miterlimit:10;}
</style>
<g>
	<g id="Calque_2_00000146480424426696909590000007019999417825904798_">
		<g>
			<path class="st0" d="M395.9,311.2c-0.2,15.1-12.2,29.3-29.5,29.3H123.1c-16.8,0-29.4-13.7-29.5-29.3c0-3.3,0.6-6.8,1.9-10.2
				c0.1-0.3,0.2-0.5,0.3-0.7c0.5-1.3,0.9-2.6,1.4-3.9c0.3-0.7,0.6-1.4,0.8-2.1c0.5-1.3,0.9-2.6,1.5-3.8c0.7-1.9,1.6-4,2.3-5.9
				c0.5-1.3,1-2.6,1.6-3.9c0.1-0.2,0.2-0.5,0.3-0.6c0.2-0.6,0.5-1.1,0.6-1.8c0.5-1.2,1-2.4,1.5-3.6c0.3-0.6,0.6-1.3,0.8-1.9
				c0.3-0.7,0.6-1.5,0.9-2.1c0.5-1,0.9-2,1.3-3.2c0.4-0.9,0.8-1.9,1.3-2.9c0.6-1.3,1.1-2.6,1.8-4c0.8-1.9,1.8-4,2.7-6v-0.1
				c0.6-1.3,1.1-2.6,1.8-3.9c0.4-0.8,0.7-1.7,1.1-2.5c0.6-1.2,1.1-2.3,1.7-3.5c1.3-2.8,2.6-5.6,3.9-8.3c1-2.1,2-4.3,3.1-6.4l2.8-5.6
				c0.1-0.2,0.2-0.4,0.3-0.6c2.9-5.9,5.9-11.9,8.9-17.8c1.1-2.1,2.1-4.3,3.2-6.3c1.3-2.4,2.5-4.8,3.8-7.2c2-3.7,4.1-7.5,6.1-11.1
				c0.3-0.5,0.5-0.9,0.7-1.4c6.1-10.9,12.2-21.5,18.3-31.2c13.7-22.1,26.9-40.1,37.8-50.7c51.8-49.6,118.8-5.2,142.2,12
				c9.3,6.9,16.9,13,22.9,18.5c-7.6,5-13.7,12-17.9,20.1c-3,5.8-4.9,12.3-5.5,19.1c-9.6-5-20.6-10.8-29.7-10.8
				c-6.6,0-12.2,3-15.8,11.5c-0.3,0.6-0.4,1.5-0.3,2.5c0.2,2.2,1.2,5.3,3.1,9c1.2,2.4,2.8,5.2,4.6,8.2c0.8,1.4,1.8,2.9,2.8,4.4
				c0.3,0.5,0.6,0.9,0.9,1.5c3.3,5.1,7.3,10.7,11.8,16.9c1.2,1.7,2.5,3.4,3.8,5.2c1.9,2.6,3.8,5.1,5.7,7.8c0.6,0.8,1.2,1.7,1.9,2.4
				c1.4,1.8,2.7,3.6,4.2,5.5c0.3,0.4,0.6,0.8,0.9,1.2c0.6,0.7,1.2,1.6,1.9,2.4c0.3,0.3,0.6,0.6,0.7,1c0.6,0.8,1.2,1.7,1.9,2.4
				c0.5,0.6,1,1.3,1.5,1.9c0.9,1.2,1.9,2.4,2.8,3.6c1.4,1.8,2.8,3.6,4.2,5.4c0.9,1.2,1.9,2.4,2.9,3.7c0.6,0.7,1.1,1.4,1.7,2.1
				c0.8,1.1,1.7,2.1,2.5,3.2c0.5,0.6,0.9,1.2,1.4,1.8c0.5,0.6,0.8,1.1,1.3,1.7l4.1,5.4l0.1,0.1c0.9,1.1,1.8,2.3,2.7,3.5
				c1.4,1.9,2.8,3.6,4.2,5.5c0.2,0.3,0.4,0.5,0.6,0.7c0.6,0.9,1.4,1.8,2,2.7c3.5,4.6,6.9,9.3,10.4,13.8
				C394.3,299.2,396,305.2,395.9,311.2z"/>
		</g>
		<g>
			<path class="st1" d="M402.5,209c-20.2,0-36.6-16.4-36.6-36.6v-1.5c0.5-12.3,7.1-23.5,17.7-29.9c5.7-3.4,12.1-5.2,18.8-5.2
				c20.2,0,36.7,16.4,36.7,36.6S422.7,209,402.5,209z"/>
			<path class="st0" d="M402.4,142.8c16.4,0,29.7,13.3,29.7,29.7s-13.3,29.7-29.7,29.7s-29.7-13.3-29.7-29.7v-1.3
				c0.5-9.9,5.7-19,14.4-24.2C391.7,144.3,396.9,142.8,402.4,142.8 M402.4,128.9c-8.2,0-15.8,2.2-22.4,6.2
				c-12.2,7.4-20.5,20.6-21,35.8c0,0.6,0,1,0,1.6c0,24.1,19.5,43.6,43.6,43.6s43.6-19.5,43.6-43.6S426.5,128.9,402.4,128.9
				L402.4,128.9z"/>
		</g>
		<path class="st2" d="M395.9,311.2H93.6c0-3.3,0.6-6.8,1.9-10.2c0.1-0.3,0.2-0.5,0.3-0.7c0.5-1.3,0.9-2.6,1.4-3.9
			c0.3-0.7,0.6-1.4,0.8-2.1c0.5-1.3,0.9-2.6,1.5-3.8c0.7-1.9,1.6-4,2.3-5.9c0.5-1.3,1-2.6,1.6-3.9c0.1-0.2,0.2-0.5,0.3-0.6H380
			c3.5,4.6,6.9,9.3,10.4,13.8C394.3,299.2,396,305.2,395.9,311.2z"/>
		<path class="st3" d="M370.4,267.4H108.8c0.4-0.9,0.8-1.9,1.3-2.9c0.6-1.3,1.1-2.6,1.8-4c0.8-1.9,1.8-4,2.7-6v-0.1
			c0.6-1.3,1.1-2.6,1.8-3.9c0.4-0.8,0.7-1.7,1.1-2.5c0.6-1.2,1.1-2.3,1.7-3.5c1.3-2.8,2.6-5.6,3.9-8.3h223.2
			c0.6,0.8,1.2,1.7,1.9,2.4c0.5,0.6,1,1.3,1.5,1.9c0.9,1.2,1.9,2.4,2.8,3.6c1.4,1.8,2.8,3.6,4.2,5.4c0.9,1.2,1.9,2.4,2.9,3.7
			c0.6,0.7,1.1,1.4,1.7,2.1c0.8,1.1,1.7,2.1,2.5,3.2c0.5,0.6,0.9,1.2,1.4,1.8c0.5,0.6,0.8,1.1,1.3,1.7L370.4,267.4z"/>
		<path class="st4" d="M336.7,223.7H129.1c2.9-5.9,5.9-11.9,8.9-17.8c1.1-2.1,2.1-4.3,3.2-6.3c1.3-2.4,2.5-4.8,3.8-7.2h169.4
			c0.3,0.5,0.6,0.9,0.9,1.5c3.3,5.1,7.3,10.7,11.8,16.9c1.2,1.7,2.5,3.4,3.8,5.2C332.8,218.5,334.7,221,336.7,223.7z"/>
		<g>
			<g>
				<path class="st0" d="M263.4,89.1c29,0,58.8,17.4,78.7,32.1c3.6,2.7,6.9,5.3,10,7.6c-3.5,4.1-6.7,8.6-9.1,13.5
					c-0.9,1.8-1.8,3.6-2.4,5.4c-6.6-2.8-13.4-4.8-20.4-4.8c-12.9,0-23.1,7-28.6,19.9c-1.2,2.8-1.7,5.8-1.4,9.1
					c0.3,4.1,1.8,8.5,4.5,14.1c1.4,2.8,3.1,5.7,5.2,9.2c0.8,1.5,1.8,2.9,2.7,4.3l0.3,0.5l0,0l0,0c0.3,0.5,0.6,0.9,0.8,1.4v0.1v0.1
					c3.2,4.8,7,10.4,12.1,17.4c1.2,1.7,2.5,3.5,3.8,5.3c1.4,1.9,2.8,3.7,4.1,5.6c0.6,0.7,1.2,1.6,1.8,2.3l0,0l0,0
					c0.5,0.6,1,1.3,1.5,2l0.3,0.3l0.1,0.2l0.1,0.2c0.6,0.6,1.1,1.4,1.7,2.2c0.6,0.9,1.5,1.9,2.3,3c0.3,0.5,0.8,1.2,1.6,2
					c0.1,0.1,0.3,0.4,0.4,0.6c0.3,0.4,0.6,0.8,0.9,1.2l0.1,0.2l0.1,0.2c0.1,0.2,0.3,0.3,0.4,0.5l0.1,0.1l0.1,0.1
					c0.2,0.3,0.4,0.5,0.6,0.7c0.4,0.5,0.8,1.1,1.3,1.7c0.3,0.4,0.6,0.7,0.8,1c0.1,0.2,0.3,0.3,0.4,0.5l0.2,0.2l0.2,0.2l2.8,3.6
					l0.1,0.1l0.1,0.1c0.6,0.8,1.3,1.7,1.9,2.6c0.7,0.9,1.4,1.9,2.1,2.8c0.9,1.2,1.9,2.4,2.8,3.6c0.4,0.5,0.6,0.8,1,1.3
					c0.2,0.3,0.4,0.5,0.6,0.7c0.5,0.6,0.9,1.2,1.4,1.9c0.4,0.5,0.7,0.9,1.1,1.4l0.2,0.3l0.2,0.3c0.1,0.2,0.3,0.3,0.4,0.5
					c0.3,0.4,0.6,0.8,1,1.3c0.1,0.1,0.2,0.2,0.2,0.3c0.2,0.3,0.5,0.6,0.8,1.1l4,5.2l0.1,0.1l0.1,0.1l0.1,0.1l0.1,0.1l0.1,0.1
					c0.4,0.4,0.7,1,1.2,1.6c0.4,0.5,0.7,0.9,1.1,1.5c0.7,0.9,1.4,1.9,2.1,2.8c0.6,0.8,1.2,1.6,1.9,2.4c0.2,0.3,0.4,0.5,0.5,0.6l0,0
					l0.3,0.4l0.5,0.6c0.5,0.6,1,1.3,1.5,1.9v0.1v0.1c1.9,2.4,3.7,4.8,5.5,7.2c1.6,2.1,3.2,4.4,4.8,6.4c1.9,2.7,2.9,5.7,2.9,9
					c-0.1,4-1.7,8-4.4,10.8c-2,2.1-5.7,4.6-11.1,4.6H123.1c-9.5,0-15.5-8-15.6-15.4c0-1.8,0.3-3.6,0.9-5.4v-0.1
					c0.1-0.2,0.2-0.5,0.3-0.8l1.3-3.7c0.1-0.3,0.2-0.5,0.3-0.6c0.2-0.5,0.4-0.8,0.6-1.4v-0.1v-0.1c0.4-1,0.7-2,1-2.7l0.2-0.5
					l0.2-0.5c0.4-0.9,0.7-1.9,1.1-2.8c0.4-1,0.8-2.1,1.2-3.2l0.1-0.1l0.1-0.1c0.3-0.9,0.7-1.9,1.3-3.1l0.2-0.6l0.2-0.5v-0.1l0.1-0.4
					c0.2-0.5,0.5-1,0.6-1.8c0.2-0.4,0.3-0.7,0.5-1.2c0.3-0.6,0.6-1.2,0.8-1.9c0.2-0.4,0.3-0.7,0.4-0.9l0.3-0.6l0.3-0.6
					c0.1-0.2,0.2-0.4,0.3-0.6c0.2-0.4,0.3-0.6,0.5-0.9c0.3-0.6,0.6-1.3,0.8-1.9c0.2-0.4,0.4-0.8,0.6-1.2c0.4-0.9,0.7-1.8,1.1-2.6
					l0.1-0.1l0.1-0.1c0.6-1.2,1-2.4,1.6-3.6l0.1-0.2l0.1-0.2c0.7-1.9,1.7-3.7,2.6-5.7l1.2-2.8v-0.2c0.1-0.2,0.2-0.4,0.3-0.6l0.2-0.3
					l0.1-0.3l0.7-1.7l0.4-0.7c0.3-0.5,0.5-1,0.7-1.5c0.3-0.6,0.6-1.3,0.9-1.9v-0.1v-0.1c1.3-2.8,2.6-5.7,3.8-8.2
					c0.4-0.7,0.7-1.6,1.1-2.3c0.6-1.3,1.2-2.6,1.9-3.9l2.7-5.4l0.1-0.1l0.1-0.1l0.1-0.2l0.2-0.3c1.8-3.7,3.7-7.5,5.6-11.1
					c1.1-2.1,2.1-4.3,3.2-6.4c0.5-0.8,0.9-1.8,1.3-2.6c0.6-1.2,1.2-2.3,1.8-3.3l0.1-0.1l0.1-0.1c1.1-2.1,2.3-4.4,3.7-7
					c1.8-3.3,3.7-6.8,6-10.9V188v-0.1c0.1-0.2,0.3-0.5,0.4-0.6l0.3-0.6c6.1-11,12.1-21.3,18-30.7c13.8-22.3,26.1-38.9,35.6-48
					C231,95.2,245.9,89.1,263.4,89.1 M263.4,75.2c-18.6,0-37.8,6-55.3,22.7c-10.9,10.6-24.2,28.6-37.8,50.7
					c-6,9.7-12.2,20.3-18.3,31.2c-0.3,0.5-0.5,0.9-0.7,1.4c-2,3.7-4.1,7.4-6.1,11.1c-1.3,2.4-2.6,4.8-3.8,7.2
					c-1.1,2-2.1,4.2-3.2,6.3c-3,5.9-6,11.9-8.9,17.8c-0.1,0.2-0.2,0.4-0.3,0.6l-2.8,5.6c-1,2.1-2,4.3-3.1,6.4
					c-1.3,2.8-2.7,5.6-3.9,8.3c-0.6,1.2-1.1,2.3-1.7,3.5c-0.4,0.8-0.7,1.7-1.1,2.5c-0.6,1.3-1.2,2.6-1.8,3.9v0.1
					c-0.9,2-1.9,4.1-2.7,6c-0.6,1.4-1.2,2.7-1.8,4c-0.5,0.9-0.8,1.9-1.3,2.9c-0.5,1.1-0.9,2.1-1.3,3.2c-0.3,0.6-0.6,1.4-0.9,2.1
					c-0.3,0.6-0.6,1.2-0.8,1.9c-0.5,1.2-1,2.4-1.5,3.6c-0.2,0.6-0.5,1.2-0.6,1.8c-0.1,0.2-0.2,0.5-0.3,0.6c-0.6,1.3-1.1,2.6-1.6,3.9
					c-0.7,1.9-1.6,4-2.3,5.9c-0.6,1.2-1,2.5-1.5,3.8c-0.3,0.7-0.6,1.4-0.8,2.1c-0.5,1.3-0.9,2.6-1.4,3.9c-0.1,0.3-0.2,0.5-0.3,0.7
					c-1.2,3.4-1.9,6.9-1.9,10.2c0.1,15.6,12.7,29.3,29.5,29.3h243.3c17.3,0,29.3-14.1,29.5-29.3c0.1-5.9-1.7-12-5.6-17.4
					c-3.4-4.5-6.9-9.2-10.4-13.8c-0.6-0.9-1.4-1.8-2-2.7c-0.2-0.3-0.4-0.5-0.6-0.7c-1.4-1.9-2.8-3.6-4.2-5.5
					c-0.9-1.2-1.8-2.4-2.7-3.5l-0.1-0.1l-4.1-5.4c-0.5-0.6-0.8-1.1-1.3-1.7c-0.5-0.6-0.9-1.2-1.4-1.8c-0.8-1.1-1.7-2.1-2.5-3.2
					c-0.6-0.7-1.1-1.4-1.7-2.1c-1-1.3-1.9-2.5-2.9-3.7c-1.4-1.8-2.8-3.6-4.2-5.4c-0.9-1.2-1.9-2.4-2.8-3.6c-0.5-0.6-1-1.3-1.5-1.9
					c-0.6-0.8-1.3-1.7-1.9-2.4c-0.3-0.4-0.5-0.6-0.7-1c-0.6-0.8-1.2-1.7-1.9-2.4c-0.4-0.4-0.6-0.8-0.9-1.2c-1.5-1.9-2.8-3.7-4.2-5.5
					c-0.6-0.8-1.2-1.7-1.9-2.4c-1.9-2.7-3.9-5.2-5.7-7.8c-1.3-1.8-2.6-3.5-3.8-5.2c-4.4-6.1-8.4-11.8-11.8-16.9
					c-0.3-0.5-0.6-1-0.9-1.5c-1-1.5-1.9-3-2.8-4.4c-1.9-3-3.3-5.7-4.6-8.2c-1.9-3.7-3-6.8-3.1-9c-0.1-1,0-1.9,0.3-2.5
					c3.7-8.5,9.4-11.5,15.8-11.5c9.2,0,20,5.9,29.7,10.8c0.6-6.9,2.5-13.3,5.5-19.1c4.1-8.2,10.3-15.1,17.9-20.1
					c-6-5.6-13.6-11.7-22.9-18.5C334.7,98.6,300.1,75.2,263.4,75.2L263.4,75.2z"/>
			</g>
		</g>
		<path class="st5" d="M388.4,396.6H101.2c-11.4,0-20.7-9.3-20.7-20.7v-30.3c0-11.4,9.3-20.7,20.7-20.7h287.2
			c11.4,0,20.7,9.3,20.7,20.7v30.3C409.1,387.3,399.8,396.6,388.4,396.6z"/>
	</g>
	<g id="Calque_3">
	</g>
</g>
</svg>
